<?xml version="1.0" standalone="no"?>
<!DOCTYPE svg PUBLIC "-//W3C//DTD SVG 20010904//EN"
 "http://www.w3.org/TR/2001/REC-SVG-20010904/DTD/svg10.dtd">
<svg version="1.0" xmlns="http://www.w3.org/2000/svg"
 width="512.000000pt" height="512.000000pt" viewBox="0 0 512.000000 512.000000"
 preserveAspectRatio="xMidYMid meet">

<g transform="translate(0.000000,512.000000) scale(0.100000,-0.100000)"
fill="#000000" stroke="none">
<path d="M260 4860 c-13 -13 -20 -33 -20 -57 0 -37 14 -52 391 -423 216 -212
403 -389 416 -394 14 -4 33 -4 44 0 11 5 176 163 368 352 192 188 353 342 357
342 5 0 164 -155 354 -344 218 -218 355 -347 371 -351 16 -4 38 -1 55 9 16 8
180 166 364 350 184 185 339 336 343 336 5 0 166 -154 358 -342 193 -189 361
-347 374 -352 15 -6 32 -6 44 0 34 16 773 747 786 778 27 62 -33 127 -95 104
-14 -5 -151 -134 -305 -286 -154 -153 -310 -306 -347 -341 l-67 -64 -350 344
c-193 189 -359 348 -370 353 -11 5 -32 5 -46 2 -17 -4 -156 -135 -376 -353
l-349 -346 -359 352 c-378 369 -378 370 -431 335 -14 -9 -177 -168 -362 -353
l-338 -335 -42 39 c-24 22 -185 180 -358 352 -300 298 -318 313 -353 313 -24
0 -44 -7 -57 -20z"/>
<path d="M261 3933 c-11 -10 -24 -33 -27 -52 -7 -33 -3 -37 393 -432 386 -386
400 -399 437 -399 37 0 51 13 393 351 l353 350 356 -348 c318 -312 358 -348
391 -351 39 -4 20 -20 559 511 l191 189 356 -351 c339 -335 357 -351 393 -351
35 0 52 15 358 316 508 501 466 457 466 496 0 48 -35 80 -83 76 -31 -3 -75
-42 -391 -352 l-356 -348 -354 351 c-342 340 -354 351 -392 351 -37 0 -49 -11
-391 -352 l-352 -352 -356 352 c-338 335 -357 352 -392 352 -35 0 -54 -17
-390 -352 l-353 -353 -223 220 c-479 475 -501 495 -534 495 -17 0 -40 -8 -52
-17z"/>
<path d="M262 2987 c-14 -14 -22 -36 -22 -58 0 -32 26 -60 392 -421 216 -213
403 -391 416 -394 13 -4 33 -2 45 4 12 5 178 163 369 351 190 187 350 341 354
341 4 0 163 -155 353 -344 217 -216 356 -347 372 -351 17 -4 38 -1 55 9 16 8
180 166 364 350 184 185 339 336 343 336 5 0 166 -154 358 -342 193 -189 359
-347 369 -352 10 -5 29 -6 42 -3 30 8 777 743 793 781 9 21 10 38 3 58 -12 34
-35 48 -79 48 -30 0 -66 -33 -379 -345 -191 -190 -350 -345 -354 -345 -4 0
-165 154 -357 343 -193 188 -361 346 -374 351 -15 6 -32 6 -44 0 -12 -5 -179
-164 -372 -353 l-351 -344 -136 134 c-75 74 -236 232 -358 352 -180 178 -225
217 -248 217 -22 0 -67 -38 -234 -199 -114 -110 -274 -267 -357 -350 -82 -83
-154 -151 -159 -151 -5 0 -167 158 -361 350 -328 327 -354 350 -386 350 -24 0
-43 -7 -57 -23z"/>
<path d="M274 2047 c-20 -17 -27 -33 -27 -57 0 -30 33 -66 390 -421 377 -375
392 -389 429 -389 36 0 51 13 390 352 l353 351 358 -351 c326 -321 361 -352
391 -352 31 0 66 31 392 351 l359 350 355 -350 c338 -335 356 -351 392 -351
35 0 54 17 418 377 210 208 387 388 394 401 29 50 -11 112 -72 112 -31 0 -51
-18 -543 -504 l-201 -199 -355 351 c-342 340 -356 352 -393 352 -37 0 -50 -12
-391 -352 l-353 -352 -353 352 c-340 339 -355 352 -391 352 -36 0 -52 -14
-393 -351 l-356 -351 -191 189 c-492 486 -521 513 -549 513 -14 0 -38 -11 -53
-23z"/>
<path d="M285 1128 c-30 -18 -44 -40 -45 -73 -1 -27 44 -74 392 -418 216 -213
403 -390 415 -393 12 -3 32 -3 44 1 12 4 179 163 371 353 l349 346 67 -65 c37
-35 198 -193 357 -351 267 -265 294 -288 325 -288 32 0 59 25 350 313 173 172
334 330 357 351 l42 39 348 -343 c191 -188 358 -347 370 -352 12 -6 34 -7 49
-4 19 5 158 137 416 394 343 341 388 390 388 417 0 69 -63 103 -123 66 -17
-11 -180 -169 -362 -351 -181 -181 -334 -330 -338 -330 -5 0 -166 154 -359
343 -192 188 -360 346 -373 351 -15 6 -32 6 -44 0 -11 -5 -178 -164 -371 -353
l-351 -344 -127 124 c-70 68 -228 224 -352 346 -172 171 -233 224 -257 229
-31 6 -41 -2 -270 -224 -131 -127 -292 -285 -358 -351 -66 -67 -124 -121 -130
-121 -6 0 -161 151 -345 336 -184 184 -347 342 -362 350 -32 17 -46 17 -73 2z"/>
</g>
</svg>
